# xmcd CD database file
# Copyright (C) 1996 Ti Kan
#
# Track frame offsets:
# 	150
# 	11333
# 	23570
# 	35173
# 	48140
# 	63525
# 	76743
# 	88665
# 	100433
# 	115468
# 	129405
# 	140745
# 	152878
# 	167468
#
# Disc length: 2344 seconds
#
# Revision: 1
# Processed by: cddbd v1.4b41PL1 Copyright (c) Steve Scherf et al.
# Submitted via: DiscPlay 3.4.1
#
DISCID=b009260e
DTITLE=Ari Eisinger - You Don't Understand: Guitar Blues and Ragtime From The 192
DTITLE=0's and 1930's
DYEAR=1900
DGENRE=
TTITLE0=Southern Rag
TTITLE1=I'm Trhwoin' Up My Hand
TTITLE2=I've Got My Fingers Crossed
TTITLE3=Getting Some Fun Out Of Life
TTITLE4=Paul and Silas Bound In Jail
TTITLE5=Hard Road Blues
TTITLE6=But They Got It Fixed Right On
TTITLE7=If You See My Saviour
TTITLE8=Rackateer's Blues
TTITLE9=He Arose From The Dead
TTITLE10=What's The Matter With The Mill
TTITLE11=Buddy Bolden's Blues
TTITLE12=You Don't Understand
TTITLE13=There'll Be A Hot Time In Old Town Tonight
EXTD=
EXTT0=
EXTT1=
EXTT2=
EXTT3=
EXTT4=
EXTT5=
EXTT6=
EXTT7=
EXTT8=
EXTT9=
EXTT10=
EXTT11=
EXTT12=
EXTT13=
PLAYORDER=
